<?xml version='1.0' encoding='UTF-8'?>
<svg width="49mm" height="49mm" version="1.1" viewBox="0 0 49 49" xmlns="http://www.w3.org/2000/svg"><path d="M4,4H5V5H4zM5,4H6V5H5zM6,4H7V5H6zM7,4H8V5H7zM8,4H9V5H8zM9,4H10V5H9zM10,4H11V5H10zM12,4H13V5H12zM14,4H15V5H14zM15,4H16V5H15zM16,4H17V5H16zM17,4H18V5H17zM21,4H22V5H21zM22,4H23V5H22zM23,4H24V5H23zM24,4H25V5H24zM27,4H28V5H27zM29,4H30V5H29zM33,4H34V5H33zM34,4H35V5H34zM35,4H36V5H35zM38,4H39V5H38zM39,4H40V5H39zM40,4H41V5H40zM41,4H42V5H41zM42,4H43V5H42zM43,4H44V5H43zM44,4H45V5H44zM4,5H5V6H4zM10,5H11V6H10zM12,5H13V6H12zM15,5H16V6H15zM17,5H18V6H17zM22,5H23V6H22zM25,5H26V6H25zM26,5H27V6H26zM27,5H28V6H27zM33,5H34V6H33zM34,5H35V6H34zM36,5H37V6H36zM38,5H39V6H38zM44,5H45V6H44zM4,6H5V7H4zM6,6H7V7H6zM7,6H8V7H7zM8,6H9V7H8zM10,6H11V7H10zM20,6H21V7H20zM21,6H22V7H21zM23,6H24V7H23zM26,6H27V7H26zM28,6H29V7H28zM29,6H30V7H29zM30,6H31V7H30zM34,6H35V7H34zM35,6H36V7H35zM36,6H37V7H36zM38,6H39V7H38zM40,6H41V7H40zM41,6H42V7H41zM42,6H43V7H42zM44,6H45V7H44zM4,7H5V8H4zM6,7H7V8H6zM7,7H8V8H7zM8,7H9V8H8zM10,7H11V8H10zM12,7H13V8H12zM13,7H14V8H13zM14,7H15V8H14zM19,7H20V8H19zM24,7H25V8H24zM26,7H27V8H26zM29,7H30V8H29zM30,7H31V8H30zM33,7H34V8H33zM38,7H39V8H38zM40,7H41V8H40zM41,7H42V8H41zM42,7H43V8H42zM44,7H45V8H44zM4,8H5V9H4zM6,8H7V9H6zM7,8H8V9H7zM8,8H9V9H8zM10,8H11V9H10zM14,8H15V9H14zM16,8H17V9H16zM19,8H20V9H19zM21,8H22V9H21zM23,8H24V9H23zM30,8H31V9H30zM31,8H32V9H31zM32,8H33V9H32zM33,8H34V9H33zM34,8H35V9H34zM35,8H36V9H35zM36,8H37V9H36zM38,8H39V9H38zM40,8H41V9H40zM41,8H42V9H41zM42,8H43V9H42zM44,8H45V9H44zM4,9H5V10H4zM10,9H11V10H10zM14,9H15V10H14zM16,9H17V10H16zM17,9H18V10H17zM18,9H19V10H18zM19,9H20V10H19zM20,9H21V10H20zM22,9H23V10H22zM23,9H24V10H23zM24,9H25V10H24zM25,9H26V10H25zM26,9H27V10H26zM28,9H29V10H28zM29,9H30V10H29zM30,9H31V10H30zM33,9H34V10H33zM35,9H36V10H35zM38,9H39V10H38zM44,9H45V10H44zM4,10H5V11H4zM5,10H6V11H5zM6,10H7V11H6zM7,10H8V11H7zM8,10H9V11H8zM9,10H10V11H9zM10,10H11V11H10zM12,10H13V11H12zM14,10H15V11H14zM16,10H17V11H16zM18,10H19V11H18zM20,10H21V11H20zM22,10H23V11H22zM24,10H25V11H24zM26,10H27V11H26zM28,10H29V11H28zM30,10H31V11H30zM32,10H33V11H32zM34,10H35V11H34zM36,10H37V11H36zM38,10H39V11H38zM39,10H40V11H39zM40,10H41V11H40zM41,10H42V11H41zM42,10H43V11H42zM43,10H44V11H43zM44,10H45V11H44zM12,11H13V12H12zM13,11H14V12H13zM21,11H22V12H21zM23,11H24V12H23zM28,11H29V12H28zM30,11H31V12H30zM31,11H32V12H31zM32,11H33V12H32zM33,11H34V12H33zM34,11H35V12H34zM35,11H36V12H35zM4,12H5V13H4zM6,12H7V13H6zM7,12H8V13H7zM9,12H10V13H9zM10,12H11V13H10zM11,12H12V13H11zM14,12H15V13H14zM15,12H16V13H15zM16,12H17V13H16zM18,12H19V13H18zM19,12H20V13H19zM20,12H21V13H20zM21,12H22V13H21zM22,12H23V13H22zM24,12H25V13H24zM25,12H26V13H25zM27,12H28V13H27zM28,12H29V13H28zM30,12H31V13H30zM31,12H32V13H31zM33,12H34V13H33zM34,12H35V13H34zM36,12H37V13H36zM38,12H39V13H38zM41,12H42V13H41zM43,12H44V13H43zM44,12H45V13H44zM4,13H5V14H4zM6,13H7V14H6zM8,13H9V14H8zM9,13H10V14H9zM11,13H12V14H11zM12,13H13V14H12zM14,13H15V14H14zM15,13H16V14H15zM16,13H17V14H16zM18,13H19V14H18zM23,13H24V14H23zM24,13H25V14H24zM25,13H26V14H25zM27,13H28V14H27zM30,13H31V14H30zM32,13H33V14H32zM33,13H34V14H33zM34,13H35V14H34zM35,13H36V14H35zM36,13H37V14H36zM38,13H39V14H38zM39,13H40V14H39zM40,13H41V14H40zM42,13H43V14H42zM44,13H45V14H44zM5,14H6V15H5zM6,14H7V15H6zM7,14H8V15H7zM8,14H9V15H8zM9,14H10V15H9zM10,14H11V15H10zM14,14H15V15H14zM17,14H18V15H17zM19,14H20V15H19zM20,14H21V15H20zM21,14H22V15H21zM24,14H25V15H24zM27,14H28V15H27zM29,14H30V15H29zM30,14H31V15H30zM32,14H33V15H32zM34,14H35V15H34zM37,14H38V15H37zM42,14H43V15H42zM43,14H44V15H43zM5,15H6V16H5zM11,15H12V16H11zM12,15H13V16H12zM13,15H14V16H13zM15,15H16V16H15zM19,15H20V16H19zM20,15H21V16H20zM29,15H30V16H29zM32,15H33V16H32zM36,15H37V16H36zM37,15H38V16H37zM38,15H39V16H38zM39,15H40V16H39zM40,15H41V16H40zM44,15H45V16H44zM4,16H5V17H4zM5,16H6V17H5zM6,16H7V17H6zM7,16H8V17H7zM9,16H10V17H9zM10,16H11V17H10zM16,16H17V17H16zM17,16H18V17H17zM18,16H19V17H18zM20,16H21V17H20zM21,16H22V17H21zM22,16H23V17H22zM28,16H29V17H28zM29,16H30V17H29zM30,16H31V17H30zM31,16H32V17H31zM33,16H34V17H33zM35,16H36V17H35zM37,16H38V17H37zM39,16H40V17H39zM41,16H42V17H41zM42,16H43V17H42zM43,16H44V17H43zM6,17H7V18H6zM9,17H10V18H9zM11,17H12V18H11zM13,17H14V18H13zM15,17H16V18H15zM16,17H17V18H16zM19,17H20V18H19zM24,17H25V18H24zM25,17H26V18H25zM26,17H27V18H26zM29,17H30V18H29zM30,17H31V18H30zM31,17H32V18H31zM35,17H36V18H35zM36,17H37V18H36zM38,17H39V18H38zM41,17H42V18H41zM44,17H45V18H44zM4,18H5V19H4zM5,18H6V19H5zM7,18H8V19H7zM10,18H11V19H10zM11,18H12V19H11zM12,18H13V19H12zM14,18H15V19H14zM17,18H18V19H17zM18,18H19V19H18zM22,18H23V19H22zM23,18H24V19H23zM26,18H27V19H26zM28,18H29V19H28zM29,18H30V19H29zM30,18H31V19H30zM32,18H33V19H32zM34,18H35V19H34zM35,18H36V19H35zM38,18H39V19H38zM39,18H40V19H39zM40,18H41V19H40zM41,18H42V19H41zM43,18H44V19H43zM44,18H45V19H44zM4,19H5V20H4zM7,19H8V20H7zM13,19H14V20H13zM17,19H18V20H17zM18,19H19V20H18zM19,19H20V20H19zM20,19H21V20H20zM22,19H23V20H22zM24,19H25V20H24zM25,19H26V20H25zM30,19H31V20H30zM35,19H36V20H35zM36,19H37V20H36zM38,19H39V20H38zM40,19H41V20H40zM41,19H42V20H41zM5,20H6V21H5zM8,20H9V21H8zM9,20H10V21H9zM10,20H11V21H10zM13,20H14V21H13zM15,20H16V21H15zM16,20H17V21H16zM17,20H18V21H17zM18,20H19V21H18zM19,20H20V21H19zM20,20H21V21H20zM22,20H23V21H22zM23,20H24V21H23zM24,20H25V21H24zM25,20H26V21H25zM26,20H27V21H26zM27,20H28V21H27zM28,20H29V21H28zM29,20H30V21H29zM34,20H35V21H34zM40,20H41V21H40zM43,20H44V21H43zM5,21H6V22H5zM6,21H7V22H6zM7,21H8V22H7zM8,21H9V22H8zM9,21H10V22H9zM12,21H13V22H12zM14,21H15V22H14zM17,21H18V22H17zM19,21H20V22H19zM24,21H25V22H24zM25,21H26V22H25zM26,21H27V22H26zM27,21H28V22H27zM28,21H29V22H28zM30,21H31V22H30zM31,21H32V22H31zM33,21H34V22H33zM34,21H35V22H34zM36,21H37V22H36zM37,21H38V22H37zM39,21H40V22H39zM42,21H43V22H42zM4,22H5V23H4zM7,22H8V23H7zM9,22H10V23H9zM10,22H11V23H10zM11,22H12V23H11zM12,22H13V23H12zM13,22H14V23H13zM14,22H15V23H14zM20,22H21V23H20zM22,22H23V23H22zM24,22H25V23H24zM25,22H26V23H25zM31,22H32V23H31zM34,22H35V23H34zM36,22H37V23H36zM40,22H41V23H40zM42,22H43V23H42zM4,23H5V24H4zM5,23H6V24H5zM6,23H7V24H6zM7,23H8V24H7zM8,23H9V24H8zM11,23H12V24H11zM17,23H18V24H17zM21,23H22V24H21zM22,23H23V24H22zM23,23H24V24H23zM24,23H25V24H24zM27,23H28V24H27zM28,23H29V24H28zM30,23H31V24H30zM32,23H33V24H32zM33,23H34V24H33zM34,23H35V24H34zM36,23H37V24H36zM39,23H40V24H39zM41,23H42V24H41zM42,23H43V24H42zM43,23H44V24H43zM44,23H45V24H44zM5,24H6V25H5zM7,24H8V25H7zM8,24H9V25H8zM9,24H10V25H9zM10,24H11V25H10zM12,24H13V25H12zM23,24H24V25H23zM25,24H26V25H25zM27,24H28V25H27zM30,24H31V25H30zM31,24H32V25H31zM32,24H33V25H32zM33,24H34V25H33zM34,24H35V25H34zM35,24H36V25H35zM37,24H38V25H37zM38,24H39V25H38zM40,24H41V25H40zM41,24H42V25H41zM42,24H43V25H42zM43,24H44V25H43zM4,25H5V26H4zM5,25H6V26H5zM7,25H8V26H7zM8,25H9V26H8zM9,25H10V26H9zM11,25H12V26H11zM12,25H13V26H12zM14,25H15V26H14zM15,25H16V26H15zM18,25H19V26H18zM19,25H20V26H19zM21,25H22V26H21zM23,25H24V26H23zM24,25H25V26H24zM26,25H27V26H26zM27,25H28V26H27zM28,25H29V26H28zM33,25H34V26H33zM34,25H35V26H34zM35,25H36V26H35zM36,25H37V26H36zM37,25H38V26H37zM38,25H39V26H38zM39,25H40V26H39zM40,25H41V26H40zM43,25H44V26H43zM44,25H45V26H44zM5,26H6V27H5zM7,26H8V27H7zM10,26H11V27H10zM12,26H13V27H12zM13,26H14V27H13zM16,26H17V27H16zM17,26H18V27H17zM18,26H19V27H18zM21,26H22V27H21zM24,26H25V27H24zM25,26H26V27H25zM26,26H27V27H26zM27,26H28V27H27zM28,26H29V27H28zM32,26H33V27H32zM33,26H34V27H33zM37,26H38V27H37zM40,26H41V27H40zM43,26H44V27H43zM4,27H5V28H4zM6,27H7V28H6zM8,27H9V28H8zM13,27H14V28H13zM14,27H15V28H14zM17,27H18V28H17zM19,27H20V28H19zM20,27H21V28H20zM22,27H23V28H22zM23,27H24V28H23zM24,27H25V28H24zM27,27H28V28H27zM28,27H29V28H28zM29,27H30V28H29zM30,27H31V28H30zM34,27H35V28H34zM36,27H37V28H36zM38,27H39V28H38zM43,27H44V28H43zM5,28H6V29H5zM8,28H9V29H8zM9,28H10V29H9zM10,28H11V29H10zM13,28H14V29H13zM17,28H18V29H17zM19,28H20V29H19zM21,28H22V29H21zM24,28H25V29H24zM26,28H27V29H26zM29,28H30V29H29zM30,28H31V29H30zM33,28H34V29H33zM35,28H36V29H35zM42,28H43V29H42zM5,29H6V30H5zM13,29H14V30H13zM16,29H17V30H16zM19,29H20V30H19zM23,29H24V30H23zM26,29H27V30H26zM28,29H29V30H28zM29,29H30V30H29zM31,29H32V30H31zM32,29H33V30H32zM33,29H34V30H33zM35,29H36V30H35zM36,29H37V30H36zM38,29H39V30H38zM39,29H40V30H39zM41,29H42V30H41zM42,29H43V30H42zM43,29H44V30H43zM44,29H45V30H44zM4,30H5V31H4zM5,30H6V31H5zM6,30H7V31H6zM7,30H8V31H7zM9,30H10V31H9zM10,30H11V31H10zM11,30H12V31H11zM14,30H15V31H14zM15,30H16V31H15zM17,30H18V31H17zM18,30H19V31H18zM19,30H20V31H19zM20,30H21V31H20zM22,30H23V31H22zM23,30H24V31H23zM24,30H25V31H24zM26,30H27V31H26zM28,30H29V31H28zM29,30H30V31H29zM30,30H31V31H30zM32,30H33V31H32zM33,30H34V31H33zM35,30H36V31H35zM36,30H37V31H36zM37,30H38V31H37zM39,30H40V31H39zM40,30H41V31H40zM41,30H42V31H41zM43,30H44V31H43zM44,30H45V31H44zM7,31H8V32H7zM8,31H9V32H8zM9,31H10V32H9zM13,31H14V32H13zM15,31H16V32H15zM20,31H21V32H20zM24,31H25V32H24zM25,31H26V32H25zM32,31H33V32H32zM35,31H36V32H35zM36,31H37V32H36zM40,31H41V32H40zM41,31H42V32H41zM6,32H7V33H6zM8,32H9V33H8zM9,32H10V33H9zM10,32H11V33H10zM11,32H12V33H11zM12,32H13V33H12zM13,32H14V33H13zM14,32H15V33H14zM15,32H16V33H15zM16,32H17V33H16zM17,32H18V33H17zM18,32H19V33H18zM19,32H20V33H19zM20,32H21V33H20zM22,32H23V33H22zM24,32H25V33H24zM25,32H26V33H25zM27,32H28V33H27zM29,32H30V33H29zM31,32H32V33H31zM32,32H33V33H32zM34,32H35V33H34zM35,32H36V33H35zM36,32H37V33H36zM37,32H38V33H37zM39,32H40V33H39zM40,32H41V33H40zM41,32H42V33H41zM43,32H44V33H43zM44,32H45V33H44zM5,33H6V34H5zM9,33H10V34H9zM11,33H12V34H11zM12,33H13V34H12zM13,33H14V34H13zM14,33H15V34H14zM16,33H17V34H16zM19,33H20V34H19zM20,33H21V34H20zM22,33H23V34H22zM24,33H25V34H24zM26,33H27V34H26zM27,33H28V34H27zM28,33H29V34H28zM29,33H30V34H29zM31,33H32V34H31zM36,33H37V34H36zM39,33H40V34H39zM42,33H43V34H42zM4,34H5V35H4zM7,34H8V35H7zM8,34H9V35H8zM9,34H10V35H9zM10,34H11V35H10zM12,34H13V35H12zM13,34H14V35H13zM14,34H15V35H14zM15,34H16V35H15zM16,34H17V35H16zM17,34H18V35H17zM24,34H25V35H24zM25,34H26V35H25zM26,34H27V35H26zM30,34H31V35H30zM31,34H32V35H31zM32,34H33V35H32zM33,34H34V35H33zM36,34H37V35H36zM37,34H38V35H37zM38,34H39V35H38zM39,34H40V35H39zM40,34H41V35H40zM6,35H7V36H6zM8,35H9V36H8zM9,35H10V36H9zM14,35H15V36H14zM18,35H19V36H18zM21,35H22V36H21zM22,35H23V36H22zM26,35H27V36H26zM27,35H28V36H27zM28,35H29V36H28zM32,35H33V36H32zM33,35H34V36H33zM34,35H35V36H34zM35,35H36V36H35zM38,35H39V36H38zM41,35H42V36H41zM42,35H43V36H42zM44,35H45V36H44zM5,36H6V37H5zM8,36H9V37H8zM9,36H10V37H9zM10,36H11V37H10zM11,36H12V37H11zM13,36H14V37H13zM16,36H17V37H16zM17,36H18V37H17zM19,36H20V37H19zM21,36H22V37H21zM24,36H25V37H24zM25,36H26V37H25zM26,36H27V37H26zM27,36H28V37H27zM30,36H31V37H30zM32,36H33V37H32zM33,36H34V37H33zM34,36H35V37H34zM36,36H37V37H36zM37,36H38V37H37zM38,36H39V37H38zM39,36H40V37H39zM40,36H41V37H40zM41,36H42V37H41zM42,36H43V37H42zM44,36H45V37H44zM12,37H13V38H12zM13,37H14V38H13zM14,37H15V38H14zM19,37H20V38H19zM20,37H21V38H20zM21,37H22V38H21zM22,37H23V38H22zM23,37H24V38H23zM24,37H25V38H24zM25,37H26V38H25zM27,37H28V38H27zM28,37H29V38H28zM29,37H30V38H29zM30,37H31V38H30zM32,37H33V38H32zM33,37H34V38H33zM34,37H35V38H34zM36,37H37V38H36zM40,37H41V38H40zM41,37H42V38H41zM42,37H43V38H42zM43,37H44V38H43zM44,37H45V38H44zM4,38H5V39H4zM5,38H6V39H5zM6,38H7V39H6zM7,38H8V39H7zM8,38H9V39H8zM9,38H10V39H9zM10,38H11V39H10zM12,38H13V39H12zM13,38H14V39H13zM14,38H15V39H14zM16,38H17V39H16zM19,38H20V39H19zM20,38H21V39H20zM22,38H23V39H22zM26,38H27V39H26zM27,38H28V39H27zM29,38H30V39H29zM32,38H33V39H32zM34,38H35V39H34zM35,38H36V39H35zM36,38H37V39H36zM38,38H39V39H38zM40,38H41V39H40zM41,38H42V39H41zM43,38H44V39H43zM4,39H5V40H4zM10,39H11V40H10zM12,39H13V40H12zM13,39H14V40H13zM14,39H15V40H14zM16,39H17V40H16zM18,39H19V40H18zM20,39H21V40H20zM21,39H22V40H21zM23,39H24V40H23zM24,39H25V40H24zM26,39H27V40H26zM29,39H30V40H29zM30,39H31V40H30zM32,39H33V40H32zM34,39H35V40H34zM36,39H37V40H36zM40,39H41V40H40zM43,39H44V40H43zM4,40H5V41H4zM6,40H7V41H6zM7,40H8V41H7zM8,40H9V41H8zM10,40H11V41H10zM13,40H14V41H13zM14,40H15V41H14zM15,40H16V41H15zM18,40H19V41H18zM19,40H20V41H19zM23,40H24V41H23zM24,40H25V41H24zM26,40H27V41H26zM28,40H29V41H28zM29,40H30V41H29zM30,40H31V41H30zM33,40H34V41H33zM36,40H37V41H36zM37,40H38V41H37zM38,40H39V41H38zM39,40H40V41H39zM40,40H41V41H40zM41,40H42V41H41zM42,40H43V41H42zM43,40H44V41H43zM4,41H5V42H4zM6,41H7V42H6zM7,41H8V42H7zM8,41H9V42H8zM10,41H11V42H10zM12,41H13V42H12zM14,41H15V42H14zM16,41H17V42H16zM18,41H19V42H18zM23,41H24V42H23zM28,41H29V42H28zM30,41H31V42H30zM31,41H32V42H31zM32,41H33V42H32zM33,41H34V42H33zM34,41H35V42H34zM36,41H37V42H36zM40,41H41V42H40zM44,41H45V42H44zM4,42H5V43H4zM6,42H7V43H6zM7,42H8V43H7zM8,42H9V43H8zM10,42H11V43H10zM12,42H13V43H12zM13,42H14V43H13zM15,42H16V43H15zM17,42H18V43H17zM19,42H20V43H19zM21,42H22V43H21zM22,42H23V43H22zM23,42H24V43H23zM24,42H25V43H24zM26,42H27V43H26zM28,42H29V43H28zM33,42H34V43H33zM34,42H35V43H34zM35,42H36V43H35zM36,42H37V43H36zM39,42H40V43H39zM43,42H44V43H43zM44,42H45V43H44zM4,43H5V44H4zM10,43H11V44H10zM20,43H21V44H20zM21,43H22V44H21zM22,43H23V44H22zM24,43H25V44H24zM25,43H26V44H25zM27,43H28V44H27zM32,43H33V44H32zM36,43H37V44H36zM37,43H38V44H37zM38,43H39V44H38zM40,43H41V44H40zM41,43H42V44H41zM43,43H44V44H43zM4,44H5V45H4zM5,44H6V45H5zM6,44H7V45H6zM7,44H8V45H7zM8,44H9V45H8zM9,44H10V45H9zM10,44H11V45H10zM12,44H13V45H12zM17,44H18V45H17zM22,44H23V45H22zM23,44H24V45H23zM24,44H25V45H24zM25,44H26V45H25zM26,44H27V45H26zM29,44H30V45H29zM31,44H32V45H31zM34,44H35V45H34zM35,44H36V45H35zM36,44H37V45H36zM37,44H38V45H37zM43,44H44V45H43z" id="qr-path" fill="#000000" fill-opacity="1" fill-rule="nonzero" stroke="none" /></svg>